# xmcd
#
# Track frame offsets:
#	150
#	13680
#	28428
#	42673
#	54349
#	65449
#	78205
#	87961
#	99565
#	116114
#	127959
#
# Disc length: 1882 seconds
#
# Revision: 0
# Processed by: cddbd v1.5.2PL0 Copyright (c) Steve Scherf et al.
# Submitted via: EasyCDDAExtractor 10.0.3.1
#
DISCID=9007580b
DTITLE=Chris Ledoux - Songs of Rodeo and Country
DYEAR=1995
DGENRE=Country
TTITLE0=The Buckskin Lady
TTITLE1=Oklahoma Joe
TTITLE2=Daydream Cowboy
TTITLE3=Rodeo, You've Cast A Spell
TTITLE4=True Western Movie
TTITLE5=Joade The Rodeo Clown
TTITLE6=Mighty Lucky Man
TTITLE7=Easy Come, Easy Go
TTITLE8=The Only Road You Know
TTITLE9=She's In Love With A Rodeo Man
TTITLE10=Real Live Buckeroo
EXTD=
EXTT0=
EXTT1=
EXTT2=
EXTT3=
EXTT4=
EXTT5=
EXTT6=
EXTT7=
EXTT8=
EXTT9=
EXTT10=
PLAYORDER=
